<svg class="svg-sprites" id="skin-sprite" xmlns="http://www.w3.org/2000/svg" xmlns:xlink="http://www.w3.org/1999/xlink">
    <symbol viewBox="0 0 21 21" id="z-close"><path d="M21 2.115L18.885 0 10.5 8.385 2.115 0 0 2.115 8.385 10.5 0 18.885 2.115 21l8.385-8.385L18.885 21 21 18.885 12.615 10.5z"/></symbol>
    <symbol viewBox="0 0 16 16" id="z-facebook"><path stroke="#fff" stroke-linecap="round" stroke-linejoin="round" stroke-miterlimit="10" d="M9.3 15.5V8.7h2.4l.4-2.7H9.3V4.2c0-.8.2-1.3 1.4-1.3h1.5V.6C11.9.6 11 .5 10 .5 7.7.5 6.2 1.7 6.2 4v2H3.8v2.6h2.5v6.9h3z"/></symbol>
    <symbol viewBox="0 0 16 16" id="z-instagram"><path stroke="#fff" stroke-linecap="round" stroke-linejoin="round" stroke-miterlimit="10" d="M12.5 15.5h-9c-1.7 0-3-1.3-3-3v-9c0-1.7 1.3-3 3-3h9c1.7 0 3 1.3 3 3v9c0 1.7-1.3 3-3 3zM11.3 8h4.2M.5 8h4.2m6.6 0c0-1.8-1.5-3.3-3.3-3.3S4.7 6.2 4.7 8s1.5 3.3 3.3 3.3 3.3-1.5 3.3-3.3zM13 3.4c0-.3-.2-.5-.5-.5s-.5.2-.5.5.2.5.5.5.5-.2.5-.5z"/></symbol>
    <symbol viewBox="0 0 16 16" id="z-security"><path d="M8 0zM4.1 3.9h1.1c0-1.5 1.3-2.8 2.8-2.8 1.5 0 2.8 1.3 2.8 2.8h1.1C11.9 1.8 10.2 0 8 0S4.1 1.8 4.1 3.9zm6.7 3.2h1.1V3.9h-1.1v3.2zm-6.7 0h1.1V3.9H4.1v3.2zM3 7.1V16h10V7.1H3z"/></symbol>
    <symbol viewBox="0 0 100 100" id="z-prev"><path d="M10 50l50 50 10-10-40-40 40-40L60 0z"/></symbol>
    <symbol viewBox="0 0 100 100" id="z-next"><path d="M90 50L40 0 30 10l40 40-40 40 10 10z"/></symbol>
</svg>