<svg class="svg-sprites" id="skin-sprite" xmlns="http://www.w3.org/2000/svg" xmlns:xlink="http://www.w3.org/1999/xlink">
    <symbol viewBox="0 0 21 21" id="z-close"><path d="M21 2.115L18.885 0 10.5 8.385 2.115 0 0 2.115 8.385 10.5 0 18.885 2.115 21l8.385-8.385L18.885 21 21 18.885 12.615 10.5z"/></symbol>
    <symbol viewBox="0 0 16 16" id="z-security"><path d="M8 0zM4.1 3.9h1.1c0-1.5 1.3-2.8 2.8-2.8 1.5 0 2.8 1.3 2.8 2.8h1.1C11.9 1.8 10.2 0 8 0S4.1 1.8 4.1 3.9zm6.7 3.2h1.1V3.9h-1.1v3.2zm-6.7 0h1.1V3.9H4.1v3.2zM3 7.1V16h10V7.1H3z"/></symbol>
</svg>